<?xml version="1.0" encoding="UTF-8"?>
<!-- Official Spotify mark (without text) - adapted for local use -->
<svg xmlns="http://www.w3.org/2000/svg" viewBox="0 0 168 168" role="img" aria-label="Spotify logo">
  <title>Spotify logo</title>
  <circle cx="84" cy="84" r="84" fill="#1DB954" />

  <!-- Three curved bars -->
  <path fill="#000000" d="M124.9 54.6c-27.7-15.9-62.6-15.6-90.1-.5a6.3 6.3 0 0 0-2.6 8.5c.9 1.8 3.1 2.6 4.9 1.7 24.5-13.9 55.1-14 79.8.5 1.9 1.1 4.3.2 5.4-1.7 1.1-1.9.2-4.4-1.4-5.5z"/>

  <path fill="#000000" d="M122.4 72.8c-24.2-14.1-54.6-13.9-78.5-.5a6.1 6.1 0 0 0-2.5 8.4c.8 1.7 2.9 2.5 4.6 1.7 21.6-12.6 48.6-12.8 70.1.5 1.8 1.1 4.2.3 5.2-1.5 1-1.8.2-4.2-1.4-5.6z"/>

  <path fill="#000000" d="M116.2 89.8c-20.4-12-45.9-11.9-65.8-.4a5.8 5.8 0 0 0-2.4 8c.7 1.6 2.6 2.4 4.3 1.7 17.9-10.6 40.3-10.8 58.6.4 1.7 1 4.1.2 5-1.4.9-1.6.3-3.9-.7-4.7z"/>
</svg>